# xmcd CD database file
#
# Track frame offsets:
#	150
#	16251
#	33564
#	50603
#	66145
#	70849
#	79569
#	86991
#	95833
#	111780
#	114214
#	119974
#	151758
#	169909
#	186341
#	202786
#	220938
#
# Disc length: 3265 seconds
#
# Revision: 2
# Processed by: cddbd v1.4b41PL1 Copyright (c) Steve Scherf et al.
# Submitted via: Feurio! 1.50.2ß - http://www.feurio.com
#
DISCID=ed0cbf11
DTITLE=Usher - Live
DYEAR=1900
DGENRE=
TTITLE0=My Way
TTITLE1=Think of You
TTITLE2=Come Back
TTITLE3=Just Like Me
TTITLE4=Don't Be Cruel (intro)
TTITLE5=Every Little Step
TTITLE6=Rock Wit'cha
TTITLE7=Roni
TTITLE8=Pianolude
TTITLE9=I Need Love
TTITLE10=Tender Love
TTITLE11=Bedtime
TTITLE12=Nice and Slow (B-Rock's Remix)
TTITLE13=You Make Me Wanna
TTITLE14=My Way (remix)
TTITLE15=Nice and Slow (B-Rock's Remix)
TTITLE16=Live -17-You Make Me Wanna (extended version)
EXTD=
EXTT0=(c) makueh Records
EXTT1=(c) makueh Records
EXTT2=(c) makueh Records
EXTT3=(c) makueh Records
EXTT4=(c) makueh Records
EXTT5=(c) makueh Records
EXTT6=(c) makueh Records
EXTT7=(c) makueh Records
EXTT8=(c) makueh Records
EXTT9=(c) makueh Records
EXTT10=(c) makueh Records
EXTT11=(c) makueh Records
EXTT12=(c) makueh Records
EXTT13=(c) makueh Records
EXTT14=(c) makueh Records
EXTT15=(c) makueh Records
EXTT16=(c) makueh Records
PLAYORDER=
